<?xml version="1.0" encoding="utf-8"?>
<!-- Generator: Adobe Illustrator 21.0.0, SVG Export Plug-In . SVG Version: 6.00 Build 0)  -->
<svg version="1.1" id="图层_1" xmlns="http://www.w3.org/2000/svg" xmlns:xlink="http://www.w3.org/1999/xlink" x="0px" y="0px"
	 viewBox="0 0 200 200" style="enable-background:new 0 0 200 200;" xml:space="preserve">
<style type="text/css">
	.st0{fill:none;}
	.st1{stroke:#000000;stroke-width:2;stroke-miterlimit:10;}
	.st2{stroke:#000000;stroke-width:3;stroke-miterlimit:10;}
</style>
<line class="st0" x1="69.7" y1="16.2" x2="69.7" y2="16.2"/>
<line class="st0" x1="184" y1="130.5" x2="184" y2="130.5"/>
<g>
	<path class="st1" d="M121.3,6.9C100,2,78.2,4.5,58.8,13.7l1-4.2c0.7-3.2-1.3-6.4-4.4-7.1S49,3.7,48.2,6.9L45.4,19
		c-1.4,6,2.4,12,8.4,13.4l12.1,2.8c1.6,0.4,3.2,0.1,4.5-0.7s2.2-2.1,2.6-3.7c0.7-3.2-1.3-6.4-4.4-7.1l-2-0.5
		c37.4-16.2,82-3,104.2,32.5c13.9,22.2,16.6,49,7.5,73.5c-1.1,3.1,0.4,6.5,3.5,7.6c1.8,0.7,3.7,0.4,5.2-0.5c1.1-0.7,1.9-1.7,2.4-3
		c5-13.4,6.9-28,5.6-42.2c-1.4-14.9-6.1-28.9-14.1-41.7C167.3,27.8,146.2,12.7,121.3,6.9z M147.7,170.2c-1-0.7-2.2-1.2-3.5-1.5
		l-12.2-2.8c-3.2-0.7-6.4,1.3-7.1,4.4s1.3,6.4,4.4,7.1l1.6,0.4c-36.9,14.8-80.3,1.5-102.1-33.4c-13.5-21.5-16.4-47.7-8.1-71.7
		c1.1-3.1-0.6-6.4-3.7-7.5s-6.4,0.6-7.5,3.7c-9.5,27.4-6.1,57.3,9.3,81.8c13.5,21.7,34.7,36.7,59.5,42.5c20.7,4.8,41.9,2.6,61-6.1
		l-1,4.5c-0.7,3.2,1.3,6.4,4.4,7.1c1.6,0.4,3.2,0.1,4.5-0.7s2.2-2.1,2.6-3.7l2.8-12.2c0.3-1.3,0.4-2.5,0.2-3.8
		c0.7-1.7,0.6-3.7-0.5-5.4C151.3,171.3,149.5,170.3,147.7,170.2z"/>
</g>
<g>
	<path class="st2" d="M74.5,67.6c-0.1-2-0.2-3.6-0.2-4.8c0-0.7,0.7-1,2.2-1c1.2,0,2.4,0.3,3.8,0.8c1.3,0.5,2,1.2,2,2.1
		c0,0.8,0,2.2-0.1,3.9c-0.1,1.8-0.1,3.6-0.1,5.4v43.1c0,5.3-0.9,9.4-2.6,12.4c-1.7,2.9-4,5-6.8,6.2c-2.8,1.2-5.8,1.8-8.9,1.8
		c-3.6,0-6.7-0.6-9.3-1.9c-2.6-1.3-4.7-2.8-6.3-4.5c-1.6-1.7-2.8-3.4-3.5-5c-0.7-1.6-1.1-2.6-1.1-3.2c0-0.9,0.3-1.8,0.9-2.6
		c0.6-0.8,1.4-1.5,2.3-2c0.9-0.5,1.6-0.8,2.3-0.8c0.8,0,1.2,0.4,1.4,1.2c0.6,2.9,1.6,5.1,2.8,6.7c1.2,1.6,2.5,2.8,3.9,3.5
		c1.4,0.7,2.7,1.2,3.8,1.4c1.2,0.2,2,0.3,2.5,0.3c2,0,3.8-0.4,5.5-1.2c1.7-0.8,3.1-2.1,4.2-4.1c1.1-2,1.6-4.8,1.6-8.4V73.9
		C74.7,71.8,74.6,69.7,74.5,67.6z"/>
	<path class="st2" d="M105.8,91.3c-3-2.5-4.5-6.1-4.5-10.8c0-3.4,1.1-6.5,3.3-9.5c2.2-3,5.1-5.4,8.9-7.3c3.8-1.9,8.1-2.8,12.9-2.8
		c3.9,0,7.6,0.6,10.9,1.7c3.4,1.2,6.1,2.5,8.1,4.1c2.1,1.6,3.1,3.1,3.1,4.6c0,1.6-0.3,2.9-0.9,3.9c-0.6,1-1.2,1.5-1.8,1.5
		c-0.5,0-1-0.2-1.5-0.7c-0.5-0.5-0.9-0.9-1.3-1.3c-1.3-1.6-2.9-3-4.8-4c-2-1.1-4-1.9-6-2.5c-2.1-0.6-3.9-0.8-5.5-0.8
		c-3.4,0-6.4,0.6-9.1,1.9c-2.7,1.3-4.9,2.9-6.5,4.9c-1.6,2-2.4,4.1-2.4,6.3c0,2.4,0.9,4.4,2.8,6c1.9,1.6,4.9,2.9,9.3,3.9l11.4,2.9
		c6.8,1.7,11.8,4.5,15.1,8.1c3.3,3.7,4.9,8.3,4.9,13.9c0,4.1-1.1,7.8-3.2,11.1s-5.2,6-9.2,8c-4,2-8.9,2.9-14.7,2.9
		c-5.9,0-11-1-15.3-2.9c-4.3-2-8.1-4.8-11.4-8.5c-0.4-0.3-0.5-0.9-0.5-1.7c0-1.2,0.5-2.4,1.4-3.6c0.9-1.2,1.8-1.8,2.7-1.8
		c0.6,0,1,0.2,1.3,0.7c1.7,2.7,3.5,4.8,5.6,6.3c2,1.5,4.1,2.6,6.2,3.3c2.1,0.7,4,1.1,5.8,1.3c1.8,0.2,3.2,0.3,4.4,0.3
		c3.4,0,6.6-0.6,9.6-1.9c3-1.3,5.4-3,7.2-5.2c1.9-2.2,2.8-4.7,2.8-7.4c0-4.5-1.2-8-3.7-10.5c-2.4-2.6-6-4.5-10.8-5.7L118,96.9
		C112.9,95.7,108.9,93.9,105.8,91.3z"/>
</g>
</svg>
